<?xml version="1.0" encoding="UTF-8" standalone="no"?>
<svg width="251px" height="200px" viewBox="0 0 251 200" version="1.1" xmlns="http://www.w3.org/2000/svg" xmlns:xlink="http://www.w3.org/1999/xlink">
    <!-- Generator: Sketch 41 (35326) - http://www.bohemiancoding.com/sketch -->
    <title>1</title>
    <desc>Created with Sketch.</desc>
    <defs>
        <polygon id="path-1" points="33.9031834 72.600039 33.9031834 0.531730488 0.0817909451 0.531730488 0.0817909451 72.600039 33.9031834 72.600039"></polygon>
        <polygon id="path-3" points="33.9031834 57.326254 33.9031834 0.0570370434 0.0817909451 0.0570370434 0.0817909451 57.326254 33.9031834 57.326254"></polygon>
    </defs>
    <g id="Page-1" stroke="none" stroke-width="1" fill="none" fill-rule="evenodd">
        <g id="HNI_Landing_Redesign" transform="translate(-222.000000, -2179.000000)">
            <g id="How-it-Works" transform="translate(0.000000, 1909.000000)">
                <g id="Group-9" transform="translate(134.000000, 270.000000)">
                    <g id="1" transform="translate(88.000000, 0.000000)">
                        <path d="M89.5524436,127.78112 L89.5524436,189.744746 L110.366554,189.744746 L110.366554,186.430722 L110.366554,133.395552 C110.366554,132.069223 110.499357,130.721328 110.301947,129.423755 C110.212216,128.823492 109.483596,127.860197 109.034939,127.853008 C102.588631,127.748771 96.1387331,127.78112 89.5524436,127.78112 L89.5524436,127.78112 Z M47.2171388,96.3446171 L44.4749453,96.3446171 C34.7767686,96.3446171 25.078592,96.3410227 15.3840046,96.3482115 C11.5937476,96.3518059 10.6533618,97.2755632 10.6533618,101.020914 C10.6497726,128.906163 10.6533618,156.795007 10.6533618,184.68385 C10.6533618,188.838961 11.6583542,189.884927 15.7321627,189.892116 C25.4303393,189.902899 35.128516,189.892116 44.8266926,189.892116 L47.2171388,189.892116 L47.2171388,96.3446171 Z M152.278326,143.132744 C152.278326,157.894889 152.299862,172.660628 152.249612,187.422773 C152.242434,189.155267 152.561878,189.953221 154.543148,189.935249 C164.646911,189.841795 174.754263,189.899305 184.858026,189.87055 C187.905307,189.859767 189.455867,188.353719 189.459456,185.284113 C189.484581,157.165228 189.48817,129.046344 189.459456,100.931054 C189.455867,97.3582341 188.353964,96.3518059 184.807777,96.3482115 C174.86912,96.3410227 164.930463,96.4129105 154.991806,96.2942957 C152.780823,96.269135 152.21372,96.9053414 152.228077,99.0907283 C152.324987,113.770202 152.278326,128.45327 152.278326,143.132744 L152.278326,143.132744 Z M142.310955,189.777096 L142.310955,186.542148 L142.310955,85.4823816 C142.310955,73.1176926 142.275063,60.756598 142.350437,48.391909 C142.361205,46.8283509 141.930494,45.7751957 140.717324,44.8334665 C137.59108,42.4108501 134.511496,39.9199404 131.44627,37.4218418 C121.751682,29.5141919 111.999667,21.6748353 102.437882,13.6090323 C100.392004,11.8837269 99.1537103,12.2575431 97.4308662,13.6917032 C91.6736954,18.4830202 85.8662751,23.2096383 80.062444,27.9434451 C73.5515289,33.2559481 67.0513817,38.5792342 60.4938063,43.8306327 C58.6453381,45.3115199 57.8305764,46.9218049 57.8377549,49.4378754 C57.9238971,95.320217 57.8951831,141.206153 57.8987723,187.088495 C57.8987723,187.972714 57.9992716,188.853338 58.0531104,189.719585 L78.7774894,189.719585 C78.7774894,188.562193 78.7739001,187.573737 78.7774894,186.588875 L78.7774894,153.23297 C78.7774894,143.35919 78.7667216,133.485411 78.7846679,123.611632 C78.7954357,119.582325 80.7192783,117.691678 84.6889983,117.691678 C94.6312445,117.695272 104.573491,117.688083 114.515737,117.698866 C119.346879,117.706055 120.854368,119.212103 120.854368,124.046553 C120.865135,144.955098 120.861546,165.863643 120.865135,186.775783 L120.865135,189.777096 L142.310955,189.777096 Z M47.3212273,85.7807157 L47.3212273,82.7182985 C47.3212273,69.9402551 47.2314959,57.1586172 47.4253158,44.3841682 C47.4504406,42.651674 48.4482545,40.4051825 49.7583339,39.3053003 C61.7464575,29.2338298 73.9032763,19.3564561 86.0206132,9.43235541 C89.2042855,6.82283093 92.4382075,4.27081663 95.6147013,1.65410337 C98.2599849,-0.52409475 101.321622,-0.552849841 103.94896,1.57862126 C117.322537,12.433668 130.710472,23.2743372 144.087638,34.1221952 C146.262729,35.8834445 148.645997,37.4613801 150.512411,39.5101803 C151.549707,40.6496008 152.185006,42.5797862 152.202952,44.1649106 C152.332165,57.1082958 152.321397,70.0552754 152.231666,82.9986606 C152.217309,85.1373205 152.730573,85.8633866 154.981038,85.8382259 C165.170943,85.7196111 175.364437,85.7807157 185.554342,85.7879044 C193.404051,85.7914988 199.473487,91.6179991 199.491433,99.4897052 C199.552451,128.449676 199.584754,157.409647 199.469898,186.369617 C199.437595,194.054415 193.666067,199.934831 185.249256,199.934831 C156.08294,199.931237 126.916625,199.934831 97.7503102,199.934831 C70.3211962,199.934831 42.8920823,199.812622 15.4665576,199.99953 C6.19550269,200.064229 -0.0605749935,193.436181 0.000442402108,184.586802 C0.183494589,156.622476 0.169137555,128.65815 0.00762091924,100.693825 C-0.0426287007,91.8264735 7.21126286,85.6081851 14.9281688,85.7447718 C24.7842728,85.9173024 34.6475553,85.7843101 44.5072486,85.7807157 L47.3212273,85.7807157 L47.3212273,85.7807157 Z" id="Fill-1" fill="#FEFEFE"></path>
                        <path d="M99.7805204,93.3538029 C107.921273,93.5312858 115.072179,86.4464596 115.086736,78.4343759 C115.104932,69.5457442 108.809222,62.7724185 100.41373,62.7325754 C91.4032242,62.6891102 84.5361703,69.4877906 84.3687699,78.329335 C84.212287,86.6130761 93.2737412,94.1289322 99.7805204,93.3538029 M125.385497,78.1373638 C125.71302,92.3939466 113.936768,103.622454 100.646635,103.82167 C86.108278,104.04624 74.9943498,93.3320704 74.2010176,79.8397504 C73.2257286,63.228803 86.002743,53.1303901 98.3503391,52.4965227 C113.820316,51.703283 125.844029,63.5982571 125.385497,78.1373638" id="Fill-3" fill="#FEFEFE"></path>
                        <g id="Group-7" transform="translate(216.993384, 124.590164)">
                            <mask id="mask-2" fill="white">
                                <use xlink:href="#path-1"></use>
                            </mask>
                            <g id="Clip-6"></g>
                            <path d="M11.2367866,6.33949422 C11.2404006,9.62370191 13.6906656,12.0715362 16.9721414,12.0643261 C20.1668822,12.060721 22.8303708,9.49391983 22.8592825,6.38275491 C22.8881942,3.2283293 20.2030218,0.538956147 17.0191229,0.531746032 C13.7231912,0.524535916 11.2331727,3.02644606 11.2367866,6.33949422 L11.2367866,6.33949422 Z M17.8828594,52.7257735 C17.8828594,54.0848803 17.8720175,55.379096 17.8828594,56.6733118 C17.9226129,61.0390369 17.9659805,65.4047619 18.009348,69.7668819 C18.0201899,70.9349206 18.5333722,71.7857143 19.5958765,72.2904224 C20.6186272,72.7735001 21.5907825,72.6545332 22.4653609,71.955152 C23.2604321,71.3170568 23.5350931,70.4446328 23.5350931,69.4388216 C23.5206372,64.4386064 23.5314791,59.4383912 23.5350931,54.441781 C23.5350931,53.0538337 23.8675774,52.7041431 25.2734079,52.6680925 C26.3648239,52.6428571 27.4598538,52.6608824 28.5548837,52.6608824 C30.618455,52.6608824 30.9400975,52.2426957 30.4052314,50.2887544 C28.0489293,41.6366156 25.6890133,32.9880818 23.3724649,24.3287328 C23.2242925,23.7735539 22.5701657,22.8506591 23.451972,22.5730697 C24.4205133,22.2666398 24.3843737,23.405838 24.5722996,23.9934625 C26.0576373,28.6656174 27.4815376,33.3594027 28.9632612,38.0315577 C29.4872855,39.6898843 30.6618225,40.3496099 32.0784949,39.9061878 C33.6469536,39.4122949 34.2324152,38.2154157 33.7264607,36.488593 C33.0036687,34.0371536 32.2917186,31.5785042 31.529173,29.13788 C30.3618638,25.39583 29.2090105,21.6429648 27.9477384,17.9297552 C27.0984578,15.4422653 25.5119293,14.4652946 22.8881942,14.4761098 C19.1477454,14.4941351 15.4072967,14.4797148 11.6668479,14.49053 C9.70808149,14.4977401 8.04565982,15.2007264 7.00122533,16.8878935 C6.12303301,18.3118913 5.23761277,19.78636 4.70274667,21.3545601 C3.64385634,24.4332795 2.8307153,27.5913102 1.91276942,30.7168953 C1.32730787,32.6996772 0.691250884,34.6680387 0.17445458,36.6652408 C-0.176099555,38.0099274 0.503324955,39.2284369 1.61642469,39.5564972 C3.09092043,39.9927092 4.19317828,39.4627657 4.70997459,37.988297 C5.11473812,36.8346785 5.42192474,35.6486145 5.77609283,34.4769707 C6.90726237,30.7205004 8.03120398,26.9604251 9.19851311,23.21477 C9.29609003,22.8975249 9.69723961,22.6740113 9.95744474,22.4108421 C10.0586356,22.7893732 10.3188408,23.2111649 10.2357197,23.5464353 C8.02759002,32.5915254 5.77970679,41.6221953 3.54266545,50.6600753 C3.17765548,52.134544 3.60410278,52.6753027 5.15087773,52.6825128 C6.3507125,52.693328 7.55054727,52.6789077 8.75038205,52.6861178 C10.3405245,52.696933 10.6115715,52.9709174 10.6115715,54.5102771 C10.6115715,59.4744418 10.5971157,64.4386064 10.6079576,69.4027711 C10.6115715,71.2593758 11.6162525,72.4814904 13.1521855,72.5896422 C15.0928821,72.7230293 16.3144007,71.5658058 16.3216286,69.5289481 C16.3324705,64.3196395 16.3252426,59.1103309 16.3288565,53.8974173 L16.3288565,52.7257735 L17.8828594,52.7257735 Z" id="Fill-5" fill="#FEFEFE" mask="url(#mask-2)"></path>
                        </g>
                        <g id="Group-10" transform="translate(216.993384, 138.797814)">
                            <mask id="mask-4" fill="white">
                                <use xlink:href="#path-3"></use>
                            </mask>
                            <g id="Clip-9"></g>
                            <path d="M17.8828594,37.7430596 L16.3288565,37.7430596 L16.3288565,38.9010945 C16.3252426,44.0341023 16.3324705,49.1671101 16.3216286,54.3001179 C16.3144007,56.310694 15.0928821,57.4474154 13.1521855,57.315982 C11.6162525,57.2129666 10.6151855,56.0087523 10.6079576,54.175789 C10.5971157,49.2843345 10.6115715,44.3964323 10.6115715,39.5049778 C10.6151855,37.9846129 10.3405245,37.7146415 8.75038205,37.7039848 C7.55054727,37.6968803 6.3507125,37.7110893 5.15087773,37.7039848 C3.60410278,37.693328 3.17765548,37.1604898 3.54266545,35.7076177 C5.77970679,26.8056679 8.02759002,17.903718 10.2357197,8.99466368 C10.3188408,8.66075176 10.0586356,8.24869023 9.95744474,7.87215125 C9.69723961,8.13501809 9.29609003,8.35170562 9.19851311,8.66430401 C8.03120398,12.3550965 6.91087633,16.0600979 5.77609283,19.7615472 C5.4255387,20.9160299 5.11835208,22.0847216 4.71358855,23.2214431 C4.19317828,24.6778674 3.09092043,25.1964966 1.61642469,24.7666738 C0.503324955,24.4434186 -0.176099555,23.2463088 0.17445458,21.9213179 C0.691250884,19.9498166 1.33092183,18.0102857 1.91276942,16.0565457 C2.8307153,12.9802933 3.64385634,9.86496604 4.70274667,6.83134068 C5.23761277,5.28610996 6.12303301,3.83323786 7.00122533,2.43364958 C8.04565982,0.767642203 9.70808149,0.0749525705 11.6668479,0.0678480614 C15.4072967,0.0571912979 19.1477454,0.071400316 22.8881942,0.0571912979 C25.5155432,0.0429822798 27.0984578,1.00919551 27.9477384,3.46025113 C29.2090105,7.1190733 30.3618638,10.813418 31.529173,14.5042105 C32.2917186,16.9090868 33.0036687,19.3281721 33.7264607,21.7437052 C34.2324152,23.4452351 33.6469536,24.6281359 32.0784949,25.1112425 C30.6618225,25.5481698 29.4872855,24.9016595 28.9632612,23.2676224 C27.4815376,18.6603482 26.0576373,14.0353129 24.5722996,9.43159099 C24.3843737,8.8525735 24.4205133,7.73006107 23.451972,8.03200271 C22.5701657,8.30552631 23.2242925,9.21490347 23.3724649,9.76550292 C25.6890133,18.2980183 28.0489293,26.8198769 30.4052314,35.3417355 C30.9400975,37.2670575 30.618455,37.679119 28.5548837,37.679119 C27.4598538,37.679119 26.3648239,37.6613577 25.2734079,37.6897757 C23.8675774,37.721746 23.5350931,38.069867 23.5350931,39.4339327 C23.5314791,44.3609097 23.5242512,49.2843345 23.5350931,54.2113115 C23.5350931,55.2023906 23.2604321,56.0655884 22.4653609,56.6907852 C21.5907825,57.3799226 20.6186272,57.497147 19.5958765,57.0211449 C18.5333722,56.5273815 18.0201899,55.6854972 18.009348,54.538119 C17.9659805,50.2363387 17.9226129,45.9345585 17.8828594,41.6363305 C17.8720175,40.3610711 17.8828594,39.0858118 17.8828594,37.7430596" id="Fill-8" fill="#FEFEFE" mask="url(#mask-4)"></path>
                        </g>
                        <path d="M227.897578,131.186829 C227.894187,128.047195 230.230268,125.676242 233.322438,125.683075 C236.309502,125.689908 238.828672,128.238511 238.801547,131.227825 C238.774423,134.176143 236.275597,136.60859 233.278361,136.612007 C230.199753,136.61884 227.900968,134.299132 227.897578,131.186829" id="Fill-11" fill="#FEFEFE"></path>
                    </g>
                </g>
            </g>
        </g>
    </g>
</svg>