<?xml version="1.0" encoding="UTF-8" standalone="no"?>
<svg width="161px" height="200px" viewBox="0 0 161 200" version="1.1" xmlns="http://www.w3.org/2000/svg" xmlns:xlink="http://www.w3.org/1999/xlink">
    <!-- Generator: Sketch 41 (35326) - http://www.bohemiancoding.com/sketch -->
    <title>3</title>
    <desc>Created with Sketch.</desc>
    <defs>
        <polygon id="path-1" points="76.4058444 2.68566169e-14 0.154286716 2.68566169e-14 0.154286716 34.5403996 76.4058444 34.5403996 76.4058444 0"></polygon>
    </defs>
    <g id="Page-1" stroke="none" stroke-width="1" fill="none" fill-rule="evenodd">
        <g id="HNI_Landing_Redesign" transform="translate(-1505.000000, -2179.000000)">
            <g id="How-it-Works" transform="translate(0.000000, 1909.000000)">
                <g id="Group-9" transform="translate(134.000000, 270.000000)">
                    <g id="3" transform="translate(1371.000000, 0.000000)">
                        <path d="M125.969799,136.878072 C126.688535,136.282525 127.678269,135.831946 128.082803,135.07184 C130.890977,129.790276 135.175898,126.436404 140.855087,124.645844 C142.803135,124.030707 144.378069,124.163921 146.094394,125.327589 C146.813129,125.813431 148.058152,125.535247 149.063596,125.605773 C148.690482,124.575319 148.615859,123.180485 147.885341,122.577101 C144.546952,119.814859 136.589804,119.673808 133.326038,122.494822 C132.446274,123.25101 130.572849,123.740769 129.634172,123.309781 C128.683713,122.874875 128.330237,121.147004 127.721472,119.983336 C127.690052,119.920647 127.717544,119.826613 127.717544,119.744334 C127.497603,110.14897 127.23446,100.557524 127.077359,90.9621603 C126.987026,85.4651022 128.196701,80.1404393 130.796717,75.3564707 C133.659877,70.0827427 134.504293,64.5308316 134.881334,58.692901 C135.293723,52.2986038 136.21669,45.9395693 136.900078,39.5648626 C136.994338,38.6832959 136.80189,37.7233677 137.088598,36.9240805 C137.351742,36.1835645 138.08226,35.6036895 138.608547,34.9572073 C139.193747,35.4939834 140.167771,35.9523981 140.305234,36.5871261 C141.251766,41.0694031 142.100109,45.5791065 142.846338,50.1005642 C143.930332,56.6555024 145.72128,62.9440115 148.443049,69.0522892 C150.795631,74.3260171 152.559086,79.8779283 154.338251,85.3867407 C154.947016,87.2595802 154.903813,89.363586 155.013784,91.36964 C155.394753,98.437846 155.716809,105.50997 156.054575,112.582094 C156.231314,116.280756 156.404124,119.9755 156.557298,123.674162 C156.734036,127.835157 154.774205,130.926517 151.215875,132.717077 C143.922477,136.388313 136.660499,140.255452 129.025407,143.076466 C125.408164,144.416447 120.600884,144.667204 116.964004,143.483945 C99.6083088,137.834082 82.4686269,131.522065 65.2543223,125.445132 C62.6660889,124.53222 60.0425079,123.701589 57.4896222,122.690725 C53.0515286,120.939346 50.8992496,117.75787 50.9777999,113.009164 C51.0799154,106.967494 51.2527261,100.925823 51.4844496,94.8880707 C51.7711583,87.4907466 52.1246347,80.1012586 52.4977488,72.7078525 C52.7608924,67.5712572 55.1016922,63.1947682 58.4047336,59.5196146 C62.8663923,54.5554146 65.1050767,48.7880093 66.1615786,42.3741218 C66.6053879,39.6706506 67.1081101,36.9632613 67.8739758,34.3420696 C68.1960321,33.2371727 69.2054038,31.5876634 70.0066172,31.5288923 C71.4205231,31.4231043 73.3292961,31.932454 74.2876102,32.9080544 C77.2253925,35.9053812 80.0139292,36.5596996 83.7215047,34.3655781 C87.3858776,32.1949649 93.1396892,32.6886423 96.0107037,35.7760848 C98.3200834,38.2562258 102.37328,38.5461633 105.401396,36.8300467 C109.215014,34.6672698 114.085134,35.3372605 117.235003,38.4638837 C118.44075,39.6628144 119.583658,40.9361885 120.852245,42.0606758 C123.409059,44.3253228 126.378261,43.5769706 127.658631,40.4738558 C128.550178,38.3110788 129.429941,36.1287115 130.568921,34.0952309 C131.004875,33.3233703 132.15171,32.9433171 132.972561,32.3869506 C133.345675,33.2097462 134.072266,34.048214 134.029063,34.8475012 C133.82876,38.6950501 133.479211,42.5386809 133.074677,46.3705575 C132.493404,51.8832879 132.163493,57.4547895 131.071643,62.8695681 C130.219372,67.0932521 128.616945,71.2268204 126.884911,75.1997477 C125.309977,78.804376 124.170997,82.3110524 124.249547,86.3349147 C124.441995,96.0360665 124.198489,105.745054 124.351663,115.446206 C124.461633,122.428214 124.921152,129.402387 125.227499,136.380477 C125.474932,136.548954 125.722366,136.713513 125.969799,136.878072" id="Fill-1" fill="#FEFEFE"></path>
                        <g id="Group-5" transform="translate(54.616849, 0.000000)">
                            <mask id="mask-2" fill="white">
                                <use xlink:href="#path-1"></use>
                            </mask>
                            <g id="Clip-4"></g>
                            <path d="M13.1264823,0.0181427175 C18.553109,1.22387748 23.9835816,2.43339198 29.4102083,3.63912675 C43.3517544,6.73472792 57.2894547,9.84922776 71.2348468,12.9221505 C75.050023,13.7612512 77.9614025,17.8017856 75.4923066,21.3660736 C73.546259,24.1744151 72.2347922,27.4174259 70.7310282,30.5092473 C68.4426916,35.2150147 64.1236968,35.8424503 60.7238825,32.1723297 C57.4894437,28.6798566 53.3165948,28.2754252 49.1783593,30.5999609 C46.1477556,32.3046204 42.3748847,31.8359335 39.8173321,29.4433627 C36.0521532,25.9168719 32.4485038,25.6636298 28.056436,28.3585793 C24.7796919,30.3656175 21.0683562,30.074578 17.8531472,26.241929 C15.0494542,22.8930857 11.2650455,22.1220202 7.27680184,23.9400717 C6.27685645,24.3936396 5.23845164,24.8283089 4.16927927,25.0550929 C1.67326176,25.5842555 -0.418931656,23.4449267 0.296413886,21.0032193 C1.85402111,15.6964744 3.33855541,10.3519322 5.25768135,5.16991854 C6.29993212,2.36535679 8.88056039,-0.253998045 13.1264823,0.0181427175" id="Fill-3" fill="#FEFEFE" mask="url(#mask-2)"></path>
                        </g>
                        <path d="M29.2951478,159.575869 C29.2951478,152.146531 29.2406089,144.717194 29.3341041,137.287856 C29.3574778,135.37635 28.7185946,134.795933 26.8331098,134.823019 C20.4014252,134.912016 13.9619493,134.908147 7.53026475,134.823019 C5.68763192,134.799802 4.97862732,135.333786 4.98641858,137.26464 C5.04874865,152.042056 5.04095739,166.823342 4.99031421,181.600758 C4.98641858,183.388443 5.62919747,183.957251 7.38612646,183.937904 C13.8996193,183.864385 20.4170077,183.837299 26.9305005,183.949513 C28.956228,183.984338 29.3418953,183.160145 29.3263128,181.384069 C29.2522958,174.117249 29.2951478,166.846559 29.2951478,159.575869 M90.0474925,167.837137 L90.0474925,167.829398 C95.8363982,167.829398 101.625304,167.871962 107.41421,167.81392 C111.154014,167.779095 113.666695,165.496122 113.72513,162.253526 C113.783564,158.991582 111.122849,156.611873 107.32461,156.604134 C99.5255596,156.584786 91.7265089,156.526745 83.931354,156.642828 C81.8277139,156.669914 80.6629207,156.101106 79.6422657,154.143166 C75.7076797,146.605484 69.3772815,142.314268 60.7874181,142.024059 C52.7546297,141.753198 44.7101544,142.01632 36.6695747,141.927323 C34.710073,141.907976 34.2114324,142.650909 34.2231193,144.46181 C34.2815537,154.60363 34.2815537,164.745449 34.2231193,174.887269 C34.2114324,176.531783 34.8308375,177.274717 36.3735069,177.789354 C52.4546662,183.148537 68.5007648,188.604457 84.5780285,193.96364 C89.6462427,195.654588 94.5625273,195.039346 99.2294917,192.442948 C101.048751,191.429153 102.875801,190.419227 104.710643,189.424779 C120.441195,180.900389 136.183435,172.395345 151.902301,163.851607 C155.030491,162.15292 155.840782,159.858338 154.477312,157.141987 C153.19565,154.580413 151.025784,154.088993 147.667751,155.636772 C138.559769,159.835122 129.486847,164.122468 120.332118,168.227951 C116.046925,170.147197 112.018844,172.944807 107.059707,172.968023 C95.6455124,173.014457 84.2274218,172.940937 72.8132269,173.022195 C70.5303879,173.041543 70.7524388,171.718192 70.6745262,170.228455 C70.5888223,168.552985 71.0173416,167.763618 72.9223045,167.798443 C78.629402,167.902918 84.3403951,167.837137 90.0474925,167.837137 M34.4568571,182.479123 C34.3711532,183.872124 34.2503887,184.870441 34.2542843,185.872627 C34.2659712,187.807351 33.3660808,188.975924 31.406579,188.983663 C21.9207208,189.026226 12.4309669,189.030096 2.94510863,188.987532 C0.896007417,188.975924 -0.0038830385,187.818959 1.25911747e-05,185.733327 C0.0311776286,168.16604 0.00780385053,150.594883 0.0233863692,133.027596 C0.0272819989,130.543411 0.837572971,129.730827 3.37752352,129.723088 C12.4660276,129.688263 21.550636,129.688263 30.6352444,129.723088 C33.5413841,129.734697 34.2114324,130.508586 34.2503887,133.515146 C34.2932406,136.823523 34.2932406,136.808045 37.5266133,136.835131 C45.8827389,136.908651 54.2622383,136.645528 62.587199,137.175643 C71.2939313,137.732843 78.0684313,142.163359 82.8016214,149.445658 C83.8105894,150.993436 84.8585138,151.581592 86.6816685,151.554506 C93.1133531,151.45777 99.552829,151.728631 105.972827,151.461639 C112.942108,151.1753 118.621936,155.176308 118.801135,162.358001 C118.801135,162.497301 118.949169,162.632731 119.206281,163.058371 C120.149023,162.686904 121.165782,162.334784 122.135794,161.889798 C130.160791,158.202215 138.177997,154.506894 146.191307,150.799964 C151.072531,148.540207 156.32384,150.118941 158.914434,154.642324 C161.512819,159.185055 160.125975,164.846055 155.427845,167.589492 C149.818139,170.863044 144.052607,173.877343 138.341614,176.97677 C125.930137,183.717346 113.518661,190.457922 101.083811,197.155934 C95.4429397,200.193449 89.4904175,200.870602 83.3703833,198.835273 C68.13068,193.75856 52.9104548,188.604457 37.6824384,183.489048 C36.7747567,183.183362 35.8553881,182.91637 34.4568571,182.479123" id="Fill-6" fill="#FEFEFE"></path>
                    </g>
                </g>
            </g>
        </g>
    </g>
</svg>