<?xml version="1.0" encoding="UTF-8" standalone="no"?>
<svg width="112px" height="200px" viewBox="0 0 112 200" version="1.1" xmlns="http://www.w3.org/2000/svg" xmlns:xlink="http://www.w3.org/1999/xlink">
    <!-- Generator: Sketch 41 (35326) - http://www.bohemiancoding.com/sketch -->
    <title>2</title>
    <desc>Created with Sketch.</desc>
    <defs></defs>
    <g id="Page-1" stroke="none" stroke-width="1" fill="none" fill-rule="evenodd">
        <g id="HNI_Landing_Redesign" transform="translate(-905.000000, -2179.000000)" fill="#FFFFFF">
            <g id="How-it-Works" transform="translate(0.000000, 1909.000000)">
                <g id="Group-9" transform="translate(134.000000, 270.000000)">
                    <path d="M787.585366,157.073171 L867.585366,157.073171 L867.585366,28.2926829 L787.585366,28.2926829 L787.585366,157.073171 Z M786.888502,0 C778.149826,0 771,8.05594406 771,17.9020979 L771,183.123543 C771,192.969697 778.149826,200 786.888502,200 L866.33101,200 C875.069686,200 882.219512,192.969697 882.219512,183.123543 L882.219512,17.9020979 C882.219512,8.05594406 875.069686,0.0895104895 866.33101,0.0895104895 L786.888502,0 Z M801.243902,11.7497632 C801.243902,10.6486921 802.13222,9.75609756 803.247098,9.75609756 L848.021195,9.75609756 C849.127529,9.75609756 850.02439,10.6489051 850.02439,11.7497632 L850.02439,14.5917002 C850.02439,15.6927713 849.136072,16.5853659 848.021195,16.5853659 L803.247098,16.5853659 C802.140764,16.5853659 801.243902,15.6925583 801.243902,14.5917002 L801.243902,11.7497632 Z M817.829268,178.223766 C817.829268,174.086016 821.185565,170.731707 825.321327,170.731707 L826.922575,170.731707 C831.060325,170.731707 834.414634,174.088004 834.414634,178.223766 L834.414634,179.825014 C834.414634,183.962764 831.058338,187.317073 826.922575,187.317073 L825.321327,187.317073 C821.183577,187.317073 817.829268,183.960777 817.829268,179.825014 L817.829268,178.223766 Z" id="2"></path>
                </g>
            </g>
        </g>
    </g>
</svg>