<?xml version="1.0" encoding="UTF-8"?>
<svg width="374px" height="374px" viewBox="0 0 374 374" version="1.1" xmlns="http://www.w3.org/2000/svg" xmlns:xlink="http://www.w3.org/1999/xlink">
    <!-- Generator: Sketch 41 (35326) - http://www.bohemiancoding.com/sketch -->
    <title>restaurant-cutlery-circular-symbol-of-a-spoon-and-a-fork-in-a-circle</title>
    <desc>Created with Sketch.</desc>
    <defs></defs>
    <g id="Symbols" stroke="none" stroke-width="1" fill="none" fill-rule="evenodd">
        <g id="restaurant-cutlery-circular-symbol-of-a-spoon-and-a-fork-in-a-circle" fill="#FFFFFF">
            <g id="Group">
                <g>
                    <path d="M186.874352,29.2652546 C99.8305144,29.2652546 29.2780157,99.8177533 29.2780157,186.862572 C29.2780157,249.579722 66.0085459,303.572168 119.042924,328.937417 L123.975601,233.62337 C123.975601,233.62337 114.69726,230.578362 112.666273,229.586919 C92.9866089,220.918168 78.690189,195.393895 78.690189,162.266919 C78.690189,126.118493 106.724483,94.9822572 133.828194,94.7250709 L133.885129,94.7250709 L133.930283,94.7250709 C161.039885,94.9812756 189.07516,126.117512 189.07516,162.266919 C189.07516,195.393895 174.761071,220.90737 155.121654,229.586919 C154.967538,229.654651 143.722016,233.73822 143.722016,233.73822 L149.230908,339.715685 C161.319648,342.690997 173.888404,344.437312 186.895948,344.437312 C204.437627,344.437312 221.237197,341.449239 236.999186,336.168084 L241.880819,241.721795 C229.016593,238.892745 218.043963,230.703029 211.166682,220.428336 C202.647139,207.666199 217.724934,94.714273 217.724934,94.714273 L227.533354,94.714273 L227.533354,200.708425 L237.274042,200.708425 L237.274042,94.7260525 L247.926661,94.7260525 L247.926661,200.731984 L257.621213,200.731984 L257.621213,94.7260525 L268.673354,94.7260525 L268.673354,200.731984 L278.401281,200.731984 L278.401281,94.7260525 L285.928399,94.7260525 C285.928399,94.7260525 301.006194,207.677979 292.475853,220.440115 C285.666304,230.613701 274.796745,238.779858 262.092525,241.67664 C261.864787,241.757134 261.658646,241.835664 261.658646,241.835664 L265.901239,323.076121 C312.845601,295.782955 344.483449,245.076016 344.483449,186.863554 C344.45989,99.8187349 273.907391,29.2652546 186.874352,29.2652546 L186.874352,29.2652546 Z" id="Shape"></path>
                    <path d="M101.757449,146.242835 C102.321885,143.944845 103.080682,141.760724 103.115039,141.721459 C103.360446,140.860572 102.90399,139.982016 101.968499,139.42347 C101.079144,138.944436 99.9954278,139.189843 99.4938163,139.959438 C99.4938163,139.959438 98.4159895,141.676304 96.8532388,144.213811 C95.5820315,146.397932 93.700252,149.887617 92.4162835,154.233281 C91.3040997,158.041995 89.975958,163.10621 89.3771654,168.774126 C89.1209606,171.751402 89.0630446,174.437134 89.154336,177.202378 C89.3771654,180.355365 89.8552178,183.052877 90.7681312,186.138131 C93.8641837,194.937438 96.2485564,203.457963 104.853501,211.862656 C107.573591,214.657349 110.368283,216.561706 112.386509,217.964451 L113.099171,218.466063 C113.53305,218.751717 113.94926,219.014793 114.35958,219.25431 C116.053869,220.143664 117.187648,220.462693 117.39379,220.507848 C118.237008,220.735585 119.104766,220.325265 119.46306,219.641071 C119.799759,218.92252 119.554352,218.021386 118.85347,217.452042 C118.85347,217.452042 117.871843,216.597045 116.612415,214.999937 C115.751528,214.030089 114.816037,212.627344 113.727412,211.042997 C112.957816,209.924924 112.050793,208.658625 111.206593,207.426682 C107.015045,201.028436 104.598278,192.098572 101.255837,182.950787 C100.60011,180.965937 100.064142,178.394073 99.8638898,176.209953 C99.5968871,173.689134 99.4712388,171.260588 99.4712388,169.007753 C99.3740577,163.772735 99.607685,159.278845 100.064142,155.635045 C100.588331,151.52399 100.998651,148.438735 101.757449,146.242835 L101.757449,146.242835 Z" id="Shape"></path>
                    <path d="M186.874352,0 C83.8456955,0 0,83.8280262 0,186.862572 C0,289.874541 83.8456955,373.726126 186.874352,373.726126 C289.8981,373.726126 373.727108,289.874541 373.727108,186.862572 C373.726126,83.8280262 289.8981,0 186.874352,0 L186.874352,0 Z M186.874352,359.788982 C91.5151496,359.788982 13.9312546,282.210976 13.9312546,186.862572 C13.9312546,91.5033701 91.5151496,13.9194751 186.874352,13.9194751 C282.222756,13.9194751 359.812541,91.5033701 359.812541,186.862572 C359.811559,282.210976 282.221774,359.788982 186.874352,359.788982 L186.874352,359.788982 Z" id="Shape"></path>
                </g>
            </g>
        </g>
    </g>
</svg>