<?xml version="1.0" encoding="UTF-8" standalone="no"?>
<svg width="367px" height="301px" viewBox="0 0 367 301" version="1.1" xmlns="http://www.w3.org/2000/svg" xmlns:xlink="http://www.w3.org/1999/xlink">
    <!-- Generator: Sketch 41 (35326) - http://www.bohemiancoding.com/sketch -->
    <title>ic_restaurant_black_24px</title>
    <desc>Created with Sketch.</desc>
    <defs></defs>
    <g id="Page-1" stroke="none" stroke-width="1" fill="none" fill-rule="evenodd">
        <g id="HNI_Landing_Redesign" transform="translate(-166.000000, -1133.000000)">
            <g id="Stat" transform="translate(4.000000, 1071.000000)">
                <g id="restaurant-cutlery-circular-symbol-of-a-spoon-and-a-fork-in-a-circle">
                    <g id="ic_restaurant_black_24px" transform="translate(171.000000, 71.000000)">
                        <circle id="Oval" fill="#FFFFFF" cx="174.5" cy="174.5" r="153.5"></circle>
                        <circle id="Oval" stroke="#FFFFFF" stroke-width="18" cx="174.5" cy="174.5" r="174.5"></circle>
                        <path d="M156,175.474286 L135,175.474286 L135,96 L114,96 L114,175.474286 L93,175.474286 L93,96 L72,96 L72,175.474286 C72,199.543641 89.43,219.071608 111.375,220.547559 L111.375,314.693878 C111.375,314.693878 118.797465,318.470618 122.645912,319.834965 C126.494359,321.199312 137.625,324 137.625,324 L137.625,220.547559 C159.57,219.071608 177,199.543641 177,175.474286 L177,96 L156,96 L156,175.474286 Z M208.5,141.413878 L208.5,232.241633 L234.75,232.241633 L234.75,316.555102 C234.75,316.555102 239.036931,315.368489 242.794821,313.503348 C246.552711,311.638208 261,303.526531 261,303.526531 L261,96 C232.02,96 208.5,121.431771 208.5,141.413878 Z" id="Shape" fill="#D65439"></path>
                    </g>
                </g>
            </g>
        </g>
    </g>
</svg>